<svg width="16" height="16" viewBox="0 0 16 16" fill="none" xmlns="http://www.w3.org/2000/svg">
<path fill-rule="evenodd" clip-rule="evenodd" d="M15.7072 1.70711C16.0977 1.31658 16.0977 0.683418 15.7072 0.292893C15.3167 -0.0976311 14.6835 -0.0976311 14.293 0.292893L8.00003 6.58585L1.70711 0.292922C1.31658 -0.0976021 0.683418 -0.0976021 0.292893 0.292922C-0.0976311 0.683447 -0.0976311 1.31661 0.292893 1.70714L6.58582 8.00006L0.292986 14.2929C-0.0975375 14.6834 -0.0975379 15.3166 0.292986 15.7071C0.683511 16.0976 1.31668 16.0976 1.7072 15.7071L8.00003 9.41427L14.2929 15.7071C14.6834 16.0977 15.3166 16.0977 15.7071 15.7071C16.0976 15.3166 16.0976 14.6834 15.7071 14.2929L9.41425 8.00006L15.7072 1.70711Z" fill="#1C212E"/>
</svg>
