<svg width="24" height="24" viewBox="0 0 24 24" fill="none" xmlns="http://www.w3.org/2000/svg">
<path fill-rule="evenodd" clip-rule="evenodd" d="M16.584 11.0001L4.99805 11.0001C4.44576 11.0001 3.99805 11.4478 3.99805 12.0001C3.99805 12.5524 4.44576 13.0001 4.99805 13.0001L16.5839 13.0001L11.2909 18.293C10.9004 18.6835 10.9004 19.3167 11.2909 19.7072C11.6815 20.0978 12.3146 20.0978 12.7052 19.7072L19.7053 12.7072C19.8928 12.5196 19.9982 12.2653 19.9982 12.0001C19.9982 11.7348 19.8928 11.4805 19.7053 11.293L12.7052 4.29289C12.3147 3.90236 11.6815 3.90236 11.291 4.29289C10.9005 4.68341 10.9005 5.31658 11.291 5.7071L16.584 11.0001Z" fill="#5B4FE3"/>
</svg>
