<svg width="111" height="37" viewBox="0 0 111 37" fill="none" xmlns="http://www.w3.org/2000/svg">
<g id="Primer">
<path id="Vector" d="M50.603 9.44019V21.56L58.6621 9.44019H62.8823V21.56L70.8979 9.44019H75.1181V28.8629H70.8979V16.7432L62.8795 28.8629H58.6621V16.7432L50.603 28.8629H46.3828V9.44019H50.603Z" fill="white"/>
<path id="Vector_2" d="M37.2109 2.83592C37.2109 1.28221 38.5152 1.46112e-05 40.0497 1.46112e-05C40.4178 -0.00118381 40.7825 0.0713508 41.1229 0.213444C41.4632 0.355537 41.7725 0.564383 42.0328 0.82796C42.2931 1.09154 42.4993 1.40464 42.6397 1.74925C42.78 2.09386 42.8517 2.46317 42.8505 2.83592C42.8505 4.42872 41.6227 5.71021 40.051 5.71021C39.2994 5.70582 38.5797 5.40163 38.0481 4.86358C37.5164 4.32553 37.2156 3.597 37.2109 2.83592V2.83592ZM37.9396 9.44093H42.1598V28.863H37.9396V9.44093Z" fill="white"/>
<path id="Vector_3" d="M24.7266 9.44067H28.946V28.8627H24.7266V9.44067ZM33.0897 9.44067H35.5065V13.6355H28.9846L33.0897 9.44067Z" fill="white"/>
<path id="Vector_4" d="M100.203 9.44067H104.423V28.8627H100.203V9.44067ZM108.567 9.44067H110.984V13.6355H104.462L108.567 9.44067Z" fill="white"/>
<path id="Vector_5" d="M11.9195 9.10791C10.4336 9.10863 8.9676 9.45303 7.63325 10.1148C6.2989 10.7766 5.13151 11.7384 4.22017 12.9266V9.44015H0V37H4.22017V25.3695C5.13151 26.5577 6.2989 27.5194 7.63325 28.1812C8.9676 28.843 10.4336 29.1874 11.9195 29.1882C17.3363 29.1882 21.7281 24.6932 21.7281 19.1484C21.7281 13.6036 17.3363 9.10791 11.9195 9.10791ZM11.9195 25.3367C8.6106 25.3367 5.91389 22.5601 5.91389 19.1484C5.91389 15.7366 8.60785 12.9601 11.9195 12.9601C15.2311 12.9601 17.923 15.736 17.923 19.1484C17.923 22.5608 15.2304 25.3367 11.9195 25.3367Z" fill="white"/>
<path id="Vector_6" d="M93.942 19.1505C93.942 22.5629 91.2481 25.3409 87.9378 25.3409C86.882 25.3417 85.8455 25.0546 84.9371 24.5096L93.1886 16.1548L95.9549 13.3594C95.3285 12.4571 94.56 11.665 93.6801 11.0148C92.0145 9.7772 90.0018 9.11101 87.9358 9.11353C82.5175 9.11353 78.125 13.6085 78.125 19.1526C78.1214 20.7376 78.4875 22.301 79.1937 23.7155C79.8999 25.13 80.9261 26.3556 82.1887 27.2925C83.8552 28.5305 85.8688 29.1969 87.9358 29.1945C93.3533 29.1945 97.7438 24.6988 97.7438 19.1526L93.942 19.1505ZM81.9316 19.1505C81.9316 15.7381 84.6255 12.9629 87.9378 12.9629C88.9926 12.9626 90.0281 13.2495 90.9358 13.7935L82.6844 22.1483C82.1891 21.2288 81.9302 20.1979 81.9316 19.1505V19.1505Z" fill="white"/>
</g>
</svg>
