<svg width="81" height="22" viewBox="0 0 81 22" fill="none" xmlns="http://www.w3.org/2000/svg">
<path d="M6.4122 11.5287H4.96368V16.9085C4.96368 20.3207 5.02549 20.8139 5.5791 21.5216H0C0.55361 20.8139 0.615421 20.3234 0.615421 16.9085V4.6131C0.615421 1.19817 0.55361 0.707646 0 0H7.76666C12.4508 0 14.8265 2.33738 14.8265 5.50302C14.8265 9.16187 11.7441 11.5287 6.4122 11.5287ZM10.3869 5.50302C10.3869 3.32111 9.21519 2.15242 6.37995 2.15242C5.8559 2.15242 5.33185 2.18191 4.96099 2.21407V9.28518H6.31814C9.00019 9.28518 10.3869 7.99319 10.3869 5.50302Z" fill="black"/>
<path d="M19.3145 9.2994C20.2736 7.52328 21.6639 6.69531 23.3316 6.69531C23.7034 6.69531 23.981 6.72469 23.981 6.72469V9.87898C23.7034 9.81755 23.302 9.75612 22.9302 9.75612C20.799 9.75612 19.6863 10.7684 19.6863 13.1268V16.9247C19.6863 20.3247 19.7483 20.8162 20.3033 21.5213H15.2354C15.7904 20.8162 15.8523 20.3274 15.8523 16.9247V12.6059C15.8523 9.20592 15.7904 8.71449 15.2354 8.00938L19.3145 6.8155V9.29673V9.2994Z" fill="black"/>
<path d="M25.9688 12.4554C25.9688 9.03324 25.9065 8.53861 25.3489 7.82891L29.8507 6.90416V16.8937C29.8507 20.3158 29.9129 20.8104 30.4706 21.5201H25.3462C25.9038 20.8104 25.9661 20.3185 25.9661 16.8937V12.4527L25.9688 12.4554ZM25.4707 3.20514C25.4707 2.00349 26.5265 0.955078 27.769 0.955078C29.0115 0.955078 30.0347 2.00349 30.0347 3.20514C30.0347 4.40678 28.979 5.48745 27.769 5.48745C26.5589 5.48745 25.4707 4.40947 25.4707 3.20514Z" fill="black"/>
<path d="M44.6003 11.8999C44.6003 11.9613 44.6299 12.0521 44.6299 12.1135V16.9229C44.6299 20.3223 44.6916 20.8136 45.2443 21.5186H40.168C40.7207 20.8136 40.7824 20.3249 40.7824 16.9229V12.482C40.7824 10.2149 40.0124 9.08263 38.5367 9.08263C37.0611 9.08263 36.1355 10.1535 36.1355 11.8705V16.9255C36.1355 20.3249 36.1972 20.8163 36.7499 21.5213H31.7031C32.2558 20.8163 32.3175 20.3276 32.3175 16.9255V12.6075C32.3175 9.20814 32.2558 8.71679 31.7031 8.01181L35.7652 6.81815V8.56458C36.8733 7.27746 38.196 6.69531 39.7656 6.69531C41.582 6.69531 43.0281 7.52313 43.8276 8.93042C45.0887 7.36825 46.567 6.69531 48.2278 6.69531C51.214 6.69531 53.0894 8.80759 53.0894 12.1162V16.9255C53.0894 20.3249 53.1511 20.8163 53.7038 21.5213H48.6571C49.2098 20.8163 49.2715 20.3276 49.2715 16.9255V12.4847C49.2715 10.2175 48.5014 9.0853 46.9936 9.0853C45.577 9.0853 44.6245 10.1561 44.6245 11.8732L44.595 11.9052L44.6003 11.8999Z" fill="black"/>
<path d="M64.1059 20.0034C65.5853 20.0034 67.0325 19.5131 68.018 18.712L68.1415 18.8353C67.0325 20.8635 64.9382 21.9995 62.3525 21.9995C57.8873 21.9995 54.5928 18.6799 54.5928 14.2563C54.5928 9.83279 57.8873 6.69531 62.1082 6.69531C65.6202 6.69531 68.1764 8.97005 68.6677 12.5657H58.7197C58.6579 13.0265 58.6579 13.5195 58.6579 14.042C58.6579 17.6376 60.8435 20.0034 64.1085 20.0034H64.1059ZM59.1171 10.875H64.7234C64.2911 9.27817 63.3057 8.41543 62.0142 8.41543C60.7227 8.41543 59.6729 9.30764 59.1197 10.875H59.1171Z" fill="black"/>
<path d="M73.4287 9.24305C74.3879 7.45874 75.7781 6.62695 77.4459 6.62695C77.8177 6.62695 78.0952 6.65647 78.0952 6.65647V9.82529C77.8177 9.76358 77.4163 9.70187 77.0445 9.70187C74.9133 9.70187 73.8005 10.7188 73.8005 13.088V16.9035C73.8005 20.3192 73.8625 20.8129 74.4175 21.5212H69.3496C69.9046 20.8129 69.9666 20.3219 69.9666 16.9035V12.5648C69.9666 9.14914 69.9046 8.65543 69.3496 7.94707L73.4287 6.7477V9.24036V9.24305Z" fill="black"/>
<path d="M80.2985 18.0156H76.7456V21.5684H80.2985V18.0156Z" fill="black"/>
</svg>
