<svg width="238" height="130" viewBox="0 0 238 130" fill="none" xmlns="http://www.w3.org/2000/svg">
<rect width="238" height="130" fill="white"/>
<rect x="0.5" y="0.5" width="237" height="129" stroke="black" stroke-opacity="0.1"/>
<rect opacity="0.2" x="133.375" y="81" width="92" height="17" fill="#FED933"/>
<rect x="13" y="81" width="185" height="17" fill="#FED933"/>
<path d="M22.275 14.135L18.975 23H17.82L14.535 14.135V23H13.185V12.23H15.15L18.42 21.08L21.705 12.23H23.61V23H22.275V14.135ZM30.3077 22.115C29.8127 22.76 28.9127 23.135 27.8927 23.135C27.1427 23.135 26.5277 22.925 26.0327 22.52C25.5527 22.1 25.3127 21.56 25.3127 20.885C25.3127 19.55 26.1827 18.755 28.2827 18.32L30.1877 17.93V17.6C30.1877 16.685 29.6627 16.19 28.6427 16.19C27.6827 16.19 27.0677 16.625 26.8277 17.525L25.5527 17.195C25.9577 15.86 27.1427 15.005 28.6877 15.005C30.5027 15.005 31.5227 15.92 31.5227 17.54V21.365C31.5227 21.845 31.8227 22.04 32.3627 21.92V23C31.1477 23.165 30.4727 22.85 30.3077 22.115ZM28.0577 22.04C28.6577 22.04 29.1677 21.875 29.5727 21.56C29.9777 21.23 30.1877 20.825 30.1877 20.33V18.98L28.6577 19.31C27.1577 19.61 26.6477 20.045 26.6477 20.825C26.6477 21.59 27.1727 22.04 28.0577 22.04ZM36.1332 23.075C34.6332 23.075 34.0332 22.49 34.0332 21.125V16.31H32.8182V15.155H34.0332V12.86H35.3682V15.155H37.1532V16.31H35.3682V20.915C35.3682 21.62 35.6232 21.89 36.4632 21.89C36.8232 21.89 37.0332 21.86 37.3182 21.8V22.955C36.9582 23.03 36.5532 23.075 36.1332 23.075ZM40.2709 23H38.9209V12.23H40.2709V16.22C40.8109 15.44 41.6509 15.005 42.6109 15.005C44.2159 15.005 45.2209 16.1 45.2209 17.825V23H43.8709V18.185C43.8709 16.94 43.3009 16.265 42.2359 16.265C41.6959 16.265 41.2309 16.46 40.8409 16.85C40.4659 17.225 40.2709 17.72 40.2709 18.32V23ZM57.4218 23H50.6118V12.23H52.0518V21.74H57.4218V23ZM63.2667 22.115C62.7717 22.76 61.8717 23.135 60.8517 23.135C60.1017 23.135 59.4867 22.925 58.9917 22.52C58.5117 22.1 58.2717 21.56 58.2717 20.885C58.2717 19.55 59.1417 18.755 61.2417 18.32L63.1467 17.93V17.6C63.1467 16.685 62.6217 16.19 61.6017 16.19C60.6417 16.19 60.0267 16.625 59.7867 17.525L58.5117 17.195C58.9167 15.86 60.1017 15.005 61.6467 15.005C63.4617 15.005 64.4817 15.92 64.4817 17.54V21.365C64.4817 21.845 64.7817 22.04 65.3217 21.92V23C64.1067 23.165 63.4317 22.85 63.2667 22.115ZM61.0167 22.04C61.6167 22.04 62.1267 21.875 62.5317 21.56C62.9367 21.23 63.1467 20.825 63.1467 20.33V18.98L61.6167 19.31C60.1167 19.61 59.6067 20.045 59.6067 20.825C59.6067 21.59 60.1317 22.04 61.0167 22.04ZM73.1272 21.905C72.5122 22.73 71.6272 23.165 70.5622 23.165C69.5272 23.165 68.6122 22.685 68.1322 21.86V23H66.7822V12.23H68.1322V16.295C68.6272 15.5 69.5272 15.005 70.5622 15.005C71.6272 15.005 72.5272 15.44 73.1422 16.265C73.6822 17 73.9822 17.99 73.9822 19.085C73.9822 20.165 73.6822 21.17 73.1272 21.905ZM70.3222 16.19C69.0172 16.19 68.1022 17.195 68.1022 18.815V19.37C68.1022 20.975 69.0172 21.98 70.3222 21.98C71.7172 21.98 72.6172 20.84 72.6172 19.085C72.6172 17.33 71.7472 16.19 70.3222 16.19Z" fill="black"/>
<path d="M12.2295 116.801H12.8364V122.887H12.0272V118.436H10.5689V117.838L11.218 117.796C11.9345 117.745 12.1705 117.501 12.2295 116.801Z" fill="black"/>
<path d="M114.782 120.072L114.04 119.945L114.302 116.835H117.597V117.543H114.925L114.765 119.372C115.026 119.111 115.44 118.9 115.971 118.9C117.151 118.9 117.926 119.777 117.926 120.923C117.926 122.07 117.024 122.98 115.81 122.98C114.672 122.98 113.846 122.339 113.636 121.193L114.411 121.033C114.538 121.808 115.06 122.306 115.81 122.306C116.577 122.306 117.168 121.716 117.168 120.94C117.168 120.173 116.645 119.558 115.878 119.558C115.372 119.558 114.984 119.785 114.782 120.072ZM118.41 119.861C118.41 118.015 119.279 116.742 120.72 116.742C122.153 116.742 123.021 118.015 123.021 119.861C123.021 121.707 122.153 122.98 120.72 122.98C119.279 122.98 118.41 121.707 118.41 119.861ZM119.22 119.861C119.22 121.277 119.734 122.272 120.72 122.272C121.698 122.272 122.22 121.277 122.22 119.861C122.22 118.445 121.698 117.45 120.72 117.45C119.734 117.45 119.22 118.445 119.22 119.861Z" fill="black"/>
<path d="M170.377 117.534H167.62V118.571H166.912V116.835H171.236V117.534C169.753 119.178 169.323 120.704 169.323 122.887H168.505C168.505 120.535 169.154 118.892 170.377 117.534ZM172.489 120.072L171.747 119.945L172.008 116.835H175.304V117.543H172.632L172.472 119.372C172.733 119.111 173.146 118.9 173.677 118.9C174.857 118.9 175.633 119.777 175.633 120.923C175.633 122.07 174.731 122.98 173.517 122.98C172.379 122.98 171.553 122.339 171.342 121.193L172.118 121.033C172.244 121.808 172.767 122.306 173.517 122.306C174.284 122.306 174.874 121.716 174.874 120.94C174.874 120.173 174.352 119.558 173.585 119.558C173.079 119.558 172.691 119.785 172.489 120.072Z" fill="black"/>
<path d="M60.9868 122.221L62.7739 120.738C63.6 120.055 64.2406 119.473 64.2406 118.681C64.2406 117.939 63.7601 117.433 63.0183 117.433C62.2934 117.433 61.7961 117.99 61.7961 118.681C61.7961 118.9 61.8466 119.128 61.9309 119.338H61.1723C61.0796 119.077 61.0374 118.875 61.0374 118.639C61.0374 117.56 61.9225 116.742 63.0352 116.742C64.2575 116.742 65.033 117.518 65.033 118.63C65.033 119.659 64.3249 120.367 63.4567 121.066L62.0911 122.179H65.151V122.887H60.9868V122.221ZM66.6163 120.072L65.8745 119.945L66.1358 116.835H69.4318V117.543H66.7596L66.5995 119.372C66.8608 119.111 67.2738 118.9 67.8049 118.9C68.985 118.9 69.7605 119.777 69.7605 120.923C69.7605 122.07 68.8586 122.98 67.6447 122.98C66.5067 122.98 65.6806 122.339 65.4699 121.193L66.2454 121.033C66.3719 121.808 66.8945 122.306 67.6447 122.306C68.4118 122.306 69.0019 121.716 69.0019 120.94C69.0019 120.173 68.4792 119.558 67.7122 119.558C67.2064 119.558 66.8186 119.785 66.6163 120.072Z" fill="black"/>
<path d="M219.229 116.801H219.836V122.887H219.027V118.436H217.569V117.838L218.218 117.796C218.934 117.745 219.17 117.501 219.229 116.801ZM220.78 119.861C220.78 118.015 221.649 116.742 223.09 116.742C224.523 116.742 225.391 118.015 225.391 119.861C225.391 121.707 224.523 122.98 223.09 122.98C221.649 122.98 220.78 121.707 220.78 119.861ZM221.59 119.861C221.59 121.277 222.104 122.272 223.09 122.272C224.068 122.272 224.59 121.277 224.59 119.861C224.59 118.445 224.068 117.45 223.09 117.45C222.104 117.45 221.59 118.445 221.59 119.861ZM225.948 119.861C225.948 118.015 226.816 116.742 228.258 116.742C229.691 116.742 230.559 118.015 230.559 119.861C230.559 121.707 229.691 122.98 228.258 122.98C226.816 122.98 225.948 121.707 225.948 119.861ZM226.757 119.861C226.757 121.277 227.271 122.272 228.258 122.272C229.236 122.272 229.758 121.277 229.758 119.861C229.758 118.445 229.236 117.45 228.258 117.45C227.271 117.45 226.757 118.445 226.757 119.861Z" fill="black"/>
<line x1="118.625" y1="107" x2="118.625" y2="113.869" stroke="black" stroke-width="0.5"/>
<line x1="65.625" y1="107" x2="65.625" y2="113.869" stroke="black" stroke-width="0.5"/>
<line x1="172.25" y1="107" x2="172.25" y2="113.869" stroke="black" stroke-width="0.5"/>
<line x1="12.5859" y1="107" x2="12.5859" y2="113.869" stroke="black" stroke-width="0.5"/>
<line x1="224.625" y1="107" x2="224.625" y2="113.869" stroke="black" stroke-width="0.5"/>
<line x1="8.6875" y1="106.75" x2="229.688" y2="106.75" stroke="black" stroke-width="0.5"/>
<line x1="172.215" y1="52" x2="172.215" y2="107" stroke="black" stroke-width="0.429508"/>
<path d="M130.679 47V40.8323H132.637C134.51 40.8323 135.695 42.0349 135.695 43.9161C135.695 45.7974 134.51 47 132.637 47H130.679ZM131.486 46.287H132.637C134.037 46.287 134.888 45.3507 134.888 43.9161C134.888 42.473 134.037 41.5452 132.629 41.5452H131.486V46.287ZM137.707 47.0773C136.891 47.0773 136.229 46.5963 136.229 45.7888C136.229 44.8954 136.925 44.526 137.93 44.3199L139.021 44.0965V43.9075C139.021 43.3921 138.738 43.1001 138.136 43.1001C137.569 43.1001 137.234 43.3664 137.097 43.8646L136.367 43.6756C136.582 42.9454 137.243 42.4214 138.162 42.4214C139.167 42.4214 139.786 42.9111 139.786 43.8732V46.0637C139.786 46.3557 139.966 46.4502 140.267 46.3815V47C139.58 47.0859 139.184 46.9227 139.09 46.4932C138.815 46.8454 138.317 47.0773 137.707 47.0773ZM139.021 45.471V44.6978L138.145 44.8868C137.458 45.0243 136.994 45.2132 136.994 45.7544C136.994 46.1925 137.312 46.4502 137.801 46.4502C138.463 46.4502 139.021 46.0465 139.021 45.471ZM140.983 41.7256V40.8323H141.825V41.7256H140.983ZM141.79 42.5073V47H141.017V42.5073H141.79ZM143.768 40.8323V47H142.995V40.8323H143.768ZM146.639 47.4896C146.382 48.1683 146.029 48.5978 145.248 48.5978C145.059 48.5978 144.964 48.5892 144.827 48.5634V47.8934C144.973 47.9277 145.067 47.9363 145.196 47.9363C145.531 47.9363 145.711 47.8161 145.892 47.3694L146.107 46.8368L144.44 42.5073H145.256L146.519 45.9434L147.765 42.5073H148.572L146.639 47.4896ZM154.772 46.5963C154.772 47.9106 153.905 48.6407 152.685 48.6407C151.697 48.6407 150.975 48.1854 150.726 47.3608L151.448 47.0859C151.594 47.6614 152.058 47.9965 152.685 47.9965C153.475 47.9965 153.999 47.5927 153.999 46.6564V46.1496C153.759 46.5877 153.252 46.8969 152.625 46.8969C151.396 46.8969 150.675 45.8833 150.675 44.6549C150.675 43.4351 151.396 42.4214 152.625 42.4214C153.243 42.4214 153.759 42.7307 153.999 43.1688V42.5073H154.772V46.5963ZM154.008 44.5862C154.008 43.5811 153.406 43.1001 152.762 43.1001C151.946 43.1001 151.448 43.71 151.448 44.6549C151.448 45.5998 151.946 46.2183 152.762 46.2183C153.406 46.2183 154.008 45.7372 154.008 44.7494V44.5862ZM159.838 44.758C159.838 46.1496 158.979 47.0945 157.751 47.0945C156.523 47.0945 155.664 46.1496 155.664 44.758C155.664 43.3664 156.523 42.4214 157.751 42.4214C158.979 42.4214 159.838 43.3664 159.838 44.758ZM156.445 44.758C156.445 45.7802 156.961 46.433 157.751 46.433C158.541 46.433 159.057 45.7802 159.057 44.758C159.057 43.7271 158.541 43.0743 157.751 43.0743C156.961 43.0743 156.445 43.7271 156.445 44.758ZM161.861 47.0773C161.045 47.0773 160.383 46.5963 160.383 45.7888C160.383 44.8954 161.079 44.526 162.084 44.3199L163.175 44.0965V43.9075C163.175 43.3921 162.892 43.1001 162.29 43.1001C161.724 43.1001 161.389 43.3664 161.251 43.8646L160.521 43.6756C160.736 42.9454 161.397 42.4214 162.316 42.4214C163.321 42.4214 163.94 42.9111 163.94 43.8732V46.0637C163.94 46.3557 164.12 46.4502 164.421 46.3815V47C163.734 47.0859 163.338 46.9227 163.244 46.4932C162.969 46.8454 162.471 47.0773 161.861 47.0773ZM163.175 45.471V44.6978L162.299 44.8868C161.612 45.0243 161.148 45.2132 161.148 45.7544C161.148 46.1925 161.466 46.4502 161.955 46.4502C162.617 46.4502 163.175 46.0465 163.175 45.471ZM165.944 40.8323V47H165.171V40.8323H165.944ZM167.123 46.5361C167.123 46.3242 167.175 46.1753 167.278 46.0894C167.381 46.0035 167.504 45.9606 167.647 45.9606C167.796 45.9606 167.922 46.0035 168.025 46.0894C168.134 46.1753 168.189 46.3242 168.189 46.5361C168.189 46.7423 168.134 46.8912 168.025 46.9828C167.922 47.0744 167.796 47.1203 167.647 47.1203C167.504 47.1203 167.381 47.0744 167.278 46.9828C167.175 46.8912 167.123 46.7423 167.123 46.5361ZM167.123 42.8595C167.123 42.6419 167.175 42.4902 167.278 42.4043C167.381 42.3184 167.504 42.2754 167.647 42.2754C167.796 42.2754 167.922 42.3184 168.025 42.4043C168.134 42.4902 168.189 42.6419 168.189 42.8595C168.189 43.0657 168.134 43.2146 168.025 43.3062C167.922 43.3979 167.796 43.4437 167.647 43.4437C167.504 43.4437 167.381 43.3979 167.278 43.3062C167.175 43.2146 167.123 43.0657 167.123 42.8595ZM174.06 41.5452H171.251V42.6018H170.529V40.8323H174.936V41.5452C173.424 43.2203 172.986 44.7751 172.986 47H172.153C172.153 44.6033 172.814 42.9283 174.06 41.5452ZM176.212 44.1309L175.456 44.002L175.723 40.8323H179.081V41.5538H176.358L176.195 43.4179C176.461 43.1516 176.882 42.9369 177.424 42.9369C178.626 42.9369 179.416 43.8302 179.416 44.9985C179.416 46.1668 178.497 47.0945 177.26 47.0945C176.101 47.0945 175.259 46.4416 175.044 45.2734L175.834 45.1102C175.963 45.9005 176.496 46.4073 177.26 46.4073C178.042 46.4073 178.643 45.806 178.643 45.0157C178.643 44.234 178.111 43.6069 177.329 43.6069C176.814 43.6069 176.418 43.8388 176.212 44.1309ZM184.16 47.0945C183.533 47.0945 183.035 46.7938 182.769 46.3471V48.5462H181.996V42.5073H182.769V43.1602C183.035 42.7221 183.533 42.4214 184.16 42.4214C185.406 42.4214 186.119 43.478 186.119 44.758C186.119 46.0293 185.406 47.0945 184.16 47.0945ZM182.752 44.6033V44.9212C182.752 45.952 183.387 46.4159 184.023 46.4159C184.865 46.4159 185.337 45.7201 185.337 44.758C185.337 43.7873 184.865 43.1001 184.023 43.1001C183.387 43.1001 182.752 43.5553 182.752 44.6033ZM190.876 44.758C190.876 46.1496 190.017 47.0945 188.788 47.0945C187.56 47.0945 186.701 46.1496 186.701 44.758C186.701 43.3664 187.56 42.4214 188.788 42.4214C190.017 42.4214 190.876 43.3664 190.876 44.758ZM187.483 44.758C187.483 45.7802 187.998 46.433 188.788 46.433C189.579 46.433 190.094 45.7802 190.094 44.758C190.094 43.7271 189.579 43.0743 188.788 43.0743C187.998 43.0743 187.483 43.7271 187.483 44.758ZM191.739 41.7256V40.8323H192.58V41.7256H191.739ZM192.546 42.5073V47H191.773V42.5073H192.546ZM193.751 47V42.5073H194.524V43.1172C194.782 42.7479 195.228 42.4214 195.864 42.4214C196.817 42.4214 197.359 43.0829 197.359 44.0364V47H196.586V44.2426C196.586 43.6155 196.319 43.143 195.649 43.143C195.091 43.143 194.524 43.5725 194.524 44.3199V47H193.751ZM198.634 45.9262V43.1688H197.938V42.5073H198.634V41.193H199.398V42.5073H200.421V43.1688H199.398V45.806C199.398 46.2784 199.63 46.3643 200.025 46.3643C200.206 46.3643 200.335 46.3471 200.515 46.3128V46.9742C200.318 47.0172 200.094 47.043 199.836 47.043C199.072 47.043 198.634 46.7852 198.634 45.9262ZM200.849 46.0465L201.45 45.6084C201.691 46.1324 202.24 46.4502 202.825 46.4502C203.349 46.4502 203.812 46.2269 203.812 45.7372C203.812 45.2476 203.383 45.1789 202.644 45.0243C201.905 44.861 201.132 44.6978 201.132 43.7787C201.132 42.9798 201.828 42.4214 202.782 42.4214C203.589 42.4214 204.25 42.8166 204.517 43.3492L203.967 43.7873C203.735 43.3406 203.314 43.0571 202.747 43.0571C202.232 43.0571 201.888 43.3148 201.888 43.7186C201.888 44.1395 202.283 44.2168 202.91 44.3542C203.684 44.5346 204.568 44.6892 204.568 45.6685C204.568 46.5275 203.787 47.0945 202.825 47.0945C202.008 47.0945 201.192 46.7423 200.849 46.0465Z" fill="black"/>
<rect x="175.969" y="12.1348" width="46.5" height="13.5" rx="6.75" stroke="#377EF0" stroke-width="0.5"/>
<path d="M183.758 21.0086C183.286 20.433 183.037 19.6685 183.037 18.8009C183.037 17.9333 183.286 17.1688 183.758 16.5932C184.274 15.9661 185.012 15.6225 185.837 15.6225C186.662 15.6225 187.4 15.9661 187.907 16.5932C188.38 17.1688 188.629 17.9333 188.629 18.8009C188.629 19.6685 188.38 20.433 187.907 21.0086C187.4 21.6357 186.662 21.9793 185.837 21.9793C185.012 21.9793 184.274 21.6357 183.758 21.0086ZM187.34 20.4674C187.65 20.0293 187.813 19.4537 187.813 18.8009C187.813 18.148 187.65 17.5725 187.34 17.1344C186.971 16.6276 186.447 16.3527 185.837 16.3527C185.227 16.3527 184.703 16.6276 184.334 17.1344C184.024 17.5725 183.861 18.148 183.861 18.8009C183.861 19.4537 184.024 20.0293 184.334 20.4674C184.703 20.9742 185.227 21.2491 185.837 21.2491C186.447 21.2491 186.971 20.9742 187.34 20.4674ZM190.369 21.8848H189.596V17.3921H190.369V18.002C190.678 17.5553 191.159 17.3062 191.709 17.3062C192.628 17.3062 193.204 17.9333 193.204 18.9212V21.8848H192.431V19.1273C192.431 18.4143 192.104 18.0278 191.494 18.0278C191.185 18.0278 190.919 18.1395 190.695 18.3628C190.481 18.5776 190.369 18.861 190.369 19.2046V21.8848ZM197.58 21.9277C196.721 21.9277 196.377 21.5927 196.377 20.811V18.0536H195.681V17.3921H196.377V16.0778H197.141V17.3921H198.164V18.0536H197.141V20.6907C197.141 21.0945 197.287 21.2491 197.769 21.2491C197.975 21.2491 198.095 21.2319 198.258 21.1976V21.859C198.052 21.9019 197.82 21.9277 197.58 21.9277ZM201.195 17.3577C201.298 17.3577 201.401 17.3663 201.504 17.3749V18.1566C201.375 18.1309 201.272 18.1223 201.126 18.1223C200.791 18.1223 200.507 18.2425 200.284 18.4917C200.061 18.7322 199.949 19.0414 199.949 19.428V21.8848H199.176V17.3921H199.949V18.1566C200.164 17.667 200.636 17.3577 201.195 17.3577ZM204.771 21.3779C204.488 21.7473 203.972 21.9621 203.388 21.9621C202.959 21.9621 202.607 21.8418 202.323 21.6099C202.048 21.3694 201.911 21.0601 201.911 20.6736C201.911 19.909 202.409 19.4537 203.612 19.2046L204.703 18.9813V18.7923C204.703 18.2683 204.402 17.9848 203.818 17.9848C203.268 17.9848 202.916 18.2339 202.778 18.7494L202.048 18.5604C202.28 17.7958 202.959 17.3062 203.844 17.3062C204.883 17.3062 205.467 17.8302 205.467 18.7579V20.9484C205.467 21.2233 205.639 21.335 205.948 21.2663V21.8848C205.252 21.9793 204.866 21.7989 204.771 21.3779ZM203.483 21.335C203.826 21.335 204.119 21.2405 204.35 21.0601C204.582 20.8711 204.703 20.6392 204.703 20.3557V19.5826L203.826 19.7716C202.967 19.9434 202.675 20.1925 202.675 20.6392C202.675 21.0773 202.976 21.335 203.483 21.335ZM208.597 17.9762C207.781 17.9762 207.249 18.6377 207.249 19.6427C207.249 20.6478 207.781 21.3006 208.597 21.3006C209.173 21.3006 209.576 20.957 209.714 20.3471L210.401 20.665C210.169 21.4638 209.482 21.9793 208.597 21.9793C207.97 21.9793 207.412 21.7387 207.034 21.292C206.664 20.8711 206.475 20.2956 206.475 19.6427C206.475 18.9899 206.664 18.4143 207.034 17.9934C207.412 17.5467 207.97 17.3062 208.597 17.3062C209.482 17.3062 210.152 17.8044 210.384 18.5947L209.714 18.9297C209.576 18.3198 209.173 17.9762 208.597 17.9762ZM211.247 15.717H212.021V19.4881L214.014 17.3921H214.976L213.223 19.1617L215.122 21.8848H214.22L212.673 19.72L212.021 20.3815V21.8848H211.247V15.717Z" fill="#377EF0"/>
<g clip-path="url(#clip0_229_7868)">
<g clip-path="url(#clip1_229_7868)">
<circle cx="213.9" cy="44.0001" r="4.90001" fill="#A15300"/>
<mask id="mask0_229_7868" style="mask-type:alpha" maskUnits="userSpaceOnUse" x="209" y="39" width="10" height="10">
<circle cx="213.9" cy="43.9994" r="4.40001" fill="#A13700" stroke="#852E00"/>
</mask>
<g mask="url(#mask0_229_7868)">
<path d="M208.289 40.0637L218.423 38.977" stroke="#EDB91E"/>
<path d="M208.375 40.8433L218.509 39.7566" stroke="#EDB91E"/>
<path d="M208.453 41.623L218.587 40.5363" stroke="#EDB91E"/>
<path d="M208.539 42.4019L218.673 41.3152" stroke="#EDB91E"/>
<path d="M208.625 43.1821L218.759 42.0954" stroke="#EDB91E"/>
<path d="M208.711 43.9609L218.845 42.8742" stroke="#EDB91E"/>
<path d="M208.789 44.7407L218.923 43.654" stroke="#EDB91E"/>
<path d="M208.875 45.521L219.009 44.4343" stroke="#EDB91E"/>
<path d="M208.961 46.2998L219.095 45.2131" stroke="#EDB91E"/>
<path d="M209.039 47.0796L219.173 45.9929" stroke="#EDB91E"/>
<path d="M209.125 47.8591L219.259 46.7724" stroke="#EDB91E"/>
<path d="M209.211 48.6387L219.345 47.552" stroke="#EDB91E"/>
<path d="M209.297 49.4185L219.431 48.3318" stroke="#EDB91E"/>
<path d="M209.375 50.1973L219.509 49.1106" stroke="#EDB91E"/>
</g>
<g filter="url(#filter0_i_229_7868)">
<circle cx="214.198" cy="43.8" r="4.80001" fill="#FED933"/>
</g>
<circle cx="214.197" cy="43.8004" r="3.90001" fill="#FED933" stroke="#F3BF23"/>
</g>
</g>
<defs>
<filter id="filter0_i_229_7868" x="208.598" y="39" width="10.4016" height="10.4001" filterUnits="userSpaceOnUse" color-interpolation-filters="sRGB">
<feFlood flood-opacity="0" result="BackgroundImageFix"/>
<feBlend mode="normal" in="SourceGraphic" in2="BackgroundImageFix" result="shape"/>
<feColorMatrix in="SourceAlpha" type="matrix" values="0 0 0 0 0 0 0 0 0 0 0 0 0 0 0 0 0 0 127 0" result="hardAlpha"/>
<feOffset dx="-1" dy="1"/>
<feGaussianBlur stdDeviation="0.4"/>
<feComposite in2="hardAlpha" operator="arithmetic" k2="-1" k3="1"/>
<feColorMatrix type="matrix" values="0 0 0 0 1 0 0 0 0 1 0 0 0 0 1 0 0 0 0.5 0"/>
<feBlend mode="normal" in2="shape" result="effect1_innerShadow_229_7868"/>
</filter>
<clipPath id="clip0_229_7868">
<rect width="10" height="10" fill="white" transform="translate(209 39)"/>
</clipPath>
<clipPath id="clip1_229_7868">
<rect width="10" height="10" fill="white" transform="translate(209 39)"/>
</clipPath>
</defs>
</svg>
