<svg width="238" height="130" viewBox="0 0 238 130" fill="none" xmlns="http://www.w3.org/2000/svg">
<g clip-path="url(#clip0_229_7899)">
<rect width="238" height="130" fill="white"/>
<path d="M16.605 23H13.185V12.23H16.605C18.21 12.23 19.545 12.74 20.505 13.685C21.45 14.645 21.945 15.995 21.945 17.615C21.945 19.235 21.45 20.585 20.505 21.545C19.545 22.49 18.21 23 16.605 23ZM14.595 13.475V21.755H16.605C17.82 21.755 18.765 21.38 19.47 20.645C20.175 19.895 20.535 18.89 20.535 17.615C20.535 16.34 20.175 15.335 19.47 14.6C18.765 13.85 17.805 13.475 16.59 13.475H14.595ZM28.0226 22.115C27.5276 22.76 26.6276 23.135 25.6076 23.135C24.8576 23.135 24.2426 22.925 23.7476 22.52C23.2676 22.1 23.0276 21.56 23.0276 20.885C23.0276 19.55 23.8976 18.755 25.9976 18.32L27.9026 17.93V17.6C27.9026 16.685 27.3776 16.19 26.3576 16.19C25.3976 16.19 24.7826 16.625 24.5426 17.525L23.2676 17.195C23.6726 15.86 24.8576 15.005 26.4026 15.005C28.2176 15.005 29.2376 15.92 29.2376 17.54V21.365C29.2376 21.845 29.5376 22.04 30.0776 21.92V23C28.8626 23.165 28.1876 22.85 28.0226 22.115ZM25.7726 22.04C26.3726 22.04 26.8826 21.875 27.2876 21.56C27.6926 21.23 27.9026 20.825 27.9026 20.33V18.98L26.3726 19.31C24.8726 19.61 24.3626 20.045 24.3626 20.825C24.3626 21.59 24.8876 22.04 25.7726 22.04ZM32.9481 13.79H31.4781V12.23H32.9481V13.79ZM31.5381 15.155H32.8881V23H31.5381V15.155ZM35.1416 12.23H36.4916V23H35.1416V12.23ZM45.0301 15.155L41.6551 23.855C41.1151 25.25 40.4101 25.79 39.2251 25.79C38.9101 25.79 38.7301 25.775 38.4901 25.73V24.56C38.7301 24.62 38.8951 24.635 39.1351 24.635C39.7501 24.635 40.0501 24.38 40.3501 23.645L40.7251 22.715L37.8151 15.155H39.2401L41.4451 21.155L43.6201 15.155H45.0301ZM58.1817 23H56.8617V21.395C56.3967 22.46 55.1667 23.165 53.7267 23.165C52.3017 23.165 51.0267 22.55 50.1717 21.47C49.3767 20.465 48.9417 19.145 48.9417 17.645C48.9417 16.13 49.3767 14.78 50.2017 13.775C51.0867 12.68 52.3767 12.065 53.8167 12.065C55.8417 12.065 57.3417 13.145 58.0017 15.05L56.6217 15.5C56.2167 14.12 55.2267 13.34 53.8317 13.34C52.7517 13.34 51.8217 13.82 51.2067 14.705C50.6667 15.47 50.3817 16.49 50.3817 17.63C50.3817 18.77 50.6667 19.79 51.2217 20.555C51.8367 21.44 52.7667 21.92 53.8467 21.92C54.7017 21.92 55.4067 21.62 55.9467 21.02C56.4867 20.42 56.7717 19.64 56.7867 18.665H53.6967V17.405H58.1817V23ZM66.1419 16.22C66.7569 16.94 67.0869 17.945 67.0869 19.085C67.0869 20.225 66.7569 21.23 66.1419 21.95C65.4819 22.73 64.5219 23.165 63.4419 23.165C62.3619 23.165 61.4019 22.73 60.7419 21.95C60.1269 21.23 59.7969 20.225 59.7969 19.085C59.7969 17.945 60.1269 16.94 60.7419 16.22C61.4019 15.44 62.3619 15.005 63.4419 15.005C64.5219 15.005 65.4819 15.44 66.1419 16.22ZM63.4419 16.145C62.0619 16.145 61.1619 17.285 61.1619 19.085C61.1619 20.87 62.0619 22.01 63.4419 22.01C64.8219 22.01 65.7219 20.87 65.7219 19.085C65.7219 17.285 64.8219 16.145 63.4419 16.145ZM73.1837 22.115C72.6887 22.76 71.7887 23.135 70.7687 23.135C70.0187 23.135 69.4037 22.925 68.9087 22.52C68.4287 22.1 68.1887 21.56 68.1887 20.885C68.1887 19.55 69.0587 18.755 71.1587 18.32L73.0637 17.93V17.6C73.0637 16.685 72.5387 16.19 71.5187 16.19C70.5587 16.19 69.9437 16.625 69.7037 17.525L68.4287 17.195C68.8337 15.86 70.0187 15.005 71.5637 15.005C73.3787 15.005 74.3987 15.92 74.3987 17.54V21.365C74.3987 21.845 74.6987 22.04 75.2387 21.92V23C74.0237 23.165 73.3487 22.85 73.1837 22.115ZM70.9337 22.04C71.5337 22.04 72.0437 21.875 72.4487 21.56C72.8537 21.23 73.0637 20.825 73.0637 20.33V18.98L71.5337 19.31C70.0337 19.61 69.5237 20.045 69.5237 20.825C69.5237 21.59 70.0487 22.04 70.9337 22.04ZM76.6992 12.23H78.0492V23H76.6992V12.23ZM82.8827 23.165C81.3377 23.165 79.9877 22.475 79.4327 21.335L80.4827 20.57C80.9027 21.47 81.8477 22.04 82.8827 22.04C83.9177 22.04 84.6077 21.575 84.6077 20.795C84.6077 20.33 84.3977 20.045 83.8577 19.865C83.7527 19.82 83.6177 19.79 83.4827 19.76C83.3477 19.715 83.0327 19.655 82.5677 19.55C82.0127 19.43 81.6227 19.325 81.3827 19.25C81.1427 19.16 80.9327 19.055 80.7677 18.95C80.1827 18.605 79.9277 18.095 79.9277 17.375C79.9277 16.685 80.1977 16.115 80.7377 15.68C81.2777 15.23 81.9677 15.005 82.8077 15.005C84.1727 15.005 85.3577 15.65 85.8377 16.625L84.8777 17.39C84.4577 16.565 83.6927 16.115 82.7477 16.115C81.8477 16.115 81.2477 16.565 81.2477 17.27C81.2477 17.675 81.4427 17.915 81.9077 18.095C82.1027 18.155 82.2677 18.215 83.0327 18.38C83.7077 18.545 84.1427 18.665 84.3677 18.74C84.5927 18.815 84.8027 18.89 84.9677 18.995C85.6277 19.37 85.9277 19.91 85.9277 20.675C85.9277 21.395 85.6427 21.995 85.0577 22.46C84.4727 22.925 83.7527 23.165 82.8827 23.165Z" fill="black"/>
<rect x="88" y="38" width="24" height="24" rx="4.5" fill="#B8E8D7" fill-opacity="0.6"/>
<path d="M97.7067 42.5C94.8354 42.5 92.5 44.8325 92.5 47.7125V57.5H102.293C105.165 57.5 107.5 55.1675 107.5 52.2875V42.5H97.7067ZM102.936 48.0275H99.2764V49.28H102.4V51.095H99.2534V53.735H97.0636V46.265H102.936V48.0275Z" fill="#00AD6F"/>
<rect x="117" y="38" width="24" height="24" rx="4.5" fill="#B8E8D7" fill-opacity="0.6"/>
<path d="M133.5 42.5C135.157 42.5 136.5 43.8431 136.5 45.5V54.5C136.5 56.1569 135.157 57.5 133.5 57.5H124.5C122.843 57.5 121.5 56.1569 121.5 54.5V45.5C121.5 43.8431 122.843 42.5 124.5 42.5H133.5ZM123 52.25H124.89V47.7676H123V52.25ZM125.239 47.75L127.216 49.9648L125.239 52.25H127.53L128.633 50.7734L129.717 52.25H132.184L132.168 52.2324H135V51.1426H132.953V47.7676H132.15L132.166 47.75H129.787L128.772 49.0859L128.755 49.1035L127.758 47.75H125.239ZM131.064 50.9893L130.154 49.9648L131.064 48.9619V50.9893Z" fill="#00AD6F"/>
<rect x="146" y="38" width="24" height="24" rx="4.5" fill="#B8E8D7" fill-opacity="0.6"/>
<path d="M164.285 45.605L159.095 42.7025C158.54 42.4325 157.887 42.4325 157.332 42.7025L152.135 45.605C151.617 45.935 151.288 46.4975 151.25 47.105V52.895C151.288 53.5025 151.617 54.065 152.135 54.395L157.325 57.2975C157.88 57.5675 158.533 57.5675 159.095 57.2975L164.285 54.395C164.802 54.065 165.132 53.5025 165.17 52.895V47.105C165.132 46.4975 164.802 45.935 164.285 45.605ZM158.21 45.575C159.102 45.575 159.823 46.295 159.823 47.18C159.823 48.065 159.102 48.7925 158.21 48.7925C157.317 48.7925 156.605 48.0725 156.605 47.18C156.605 46.2875 157.325 45.575 158.21 45.575ZM160.175 54.095C159.552 54.32 158.893 54.4325 158.233 54.4325C157.573 54.4325 156.927 54.32 156.312 54.095C154.243 53.3075 152.87 51.32 152.885 49.1V48.5675C155.787 48.5675 157.932 50.9525 157.932 53.885V54.005H158.51V53.885C158.51 50.9525 160.662 48.5675 163.542 48.5675C163.557 48.7475 163.572 48.9275 163.595 49.1C163.61 51.3125 162.245 53.3075 160.175 54.095Z" fill="#00AD6F"/>
<rect x="175" y="38" width="24" height="24" rx="4.5" fill="#B8E8D7" fill-opacity="0.6"/>
<path d="M192.25 42.5C193.493 42.5 194.5 43.5074 194.5 44.75V55.25C194.5 56.4926 193.493 57.5 192.25 57.5H181.75C180.507 57.5 179.5 56.4926 179.5 55.25V44.75C179.5 43.5074 180.507 42.5 181.75 42.5H192.25ZM182.5 54.5H186.625V45.5H182.5V54.5ZM187.375 45.5V54.5H191.5V47.75C191.5 46.5074 190.493 45.5 189.25 45.5H187.375Z" fill="#00AD6F"/>
<rect x="204" y="38" width="24" height="24" rx="4.5" fill="#B8E8D7" fill-opacity="0.6"/>
<path d="M221.25 42.5H210.75C209.505 42.5 208.5 43.505 208.5 44.75V55.25C208.5 56.495 209.505 57.5 210.75 57.5H221.25C222.495 57.5 223.5 56.495 223.5 55.25V44.75C223.5 43.505 222.495 42.5 221.25 42.5ZM220.065 52.4375C220.065 52.8575 219.743 53.1275 219.42 53.1725V54.1175H219.608C219.833 54.1175 220.02 54.305 220.02 54.53C220.02 54.755 219.833 54.95 219.608 54.95H213.277C212.595 54.95 211.935 54.38 211.935 53.645V46.2725C211.935 45.5975 212.49 45.05 213.158 45.05H219.24C219.457 45.05 219.667 45.125 219.832 45.2825C219.99 45.4475 220.065 45.6575 220.065 45.8675V52.4375Z" fill="#00AD6F"/>
<path fill-rule="evenodd" clip-rule="evenodd" d="M217.717 50.5625L217.335 49.415V49.4L216.652 47.3675C216.555 47.075 216.285 46.88 215.977 46.88C215.67 46.88 215.4 47.075 215.302 47.3675L214.628 49.4C214.628 49.4 214.62 49.4075 214.62 49.415L214.237 50.5625C214.185 50.7275 214.275 50.9 214.432 50.96C214.597 51.0125 214.777 50.9225 214.83 50.7575L215.145 49.82H216.818L217.125 50.7575C217.185 50.9225 217.357 51.0125 217.522 50.96C217.687 50.9 217.777 50.7275 217.717 50.5625ZM215.355 49.19L215.895 47.57C215.895 47.57 215.94 47.5025 215.977 47.5025C216.015 47.5025 216.053 47.5325 216.068 47.57L216.607 49.19H215.355Z" fill="#00AD6F"/>
<path fill-rule="evenodd" clip-rule="evenodd" d="M218.587 53.1725V54.1175H213.277C213 54.1175 212.768 53.8775 212.768 53.645C212.768 53.4125 212.977 53.1725 213.277 53.1725H218.587Z" fill="#00AD6F"/>
<rect x="88" y="67" width="24" height="24" rx="4.5" fill="#B8E8D7" fill-opacity="0.6"/>
<path d="M97.7067 71.5C94.8354 71.5 92.5 73.8325 92.5 76.7125V86.5H102.293C105.165 86.5 107.5 84.1675 107.5 81.2875V71.5H97.7067ZM102.936 77.0275H99.2764V78.28H102.4V80.095H99.2534V82.735H97.0636V75.265H102.936V77.0275Z" fill="#00AD6F"/>
<rect x="117" y="67" width="24" height="24" rx="4.5" fill="#B8E8D7" fill-opacity="0.6"/>
<path d="M133.5 71.5C135.157 71.5 136.5 72.8431 136.5 74.5V83.5C136.5 85.1569 135.157 86.5 133.5 86.5H124.5C122.843 86.5 121.5 85.1569 121.5 83.5V74.5C121.5 72.8431 122.843 71.5 124.5 71.5H133.5ZM123 81.25H124.89V76.7676H123V81.25ZM125.239 76.75L127.216 78.9648L125.239 81.25H127.53L128.633 79.7734L129.717 81.25H132.184L132.168 81.2324H135V80.1426H132.953V76.7676H132.15L132.166 76.75H129.787L128.772 78.0859L128.755 78.1035L127.758 76.75H125.239ZM131.064 79.9893L130.154 78.9648L131.064 77.9619V79.9893Z" fill="#00AD6F"/>
<rect x="146" y="67" width="24" height="24" rx="4.5" fill="#B8E8D7" fill-opacity="0.6"/>
<path d="M164.285 74.605L159.095 71.7025C158.54 71.4325 157.887 71.4325 157.332 71.7025L152.135 74.605C151.617 74.935 151.288 75.4975 151.25 76.105V81.895C151.288 82.5025 151.617 83.065 152.135 83.395L157.325 86.2975C157.88 86.5675 158.533 86.5675 159.095 86.2975L164.285 83.395C164.802 83.065 165.132 82.5025 165.17 81.895V76.105C165.132 75.4975 164.802 74.935 164.285 74.605ZM158.21 74.575C159.102 74.575 159.823 75.295 159.823 76.18C159.823 77.065 159.102 77.7925 158.21 77.7925C157.317 77.7925 156.605 77.0725 156.605 76.18C156.605 75.2875 157.325 74.575 158.21 74.575ZM160.175 83.095C159.552 83.32 158.893 83.4325 158.233 83.4325C157.573 83.4325 156.927 83.32 156.312 83.095C154.243 82.3075 152.87 80.32 152.885 78.1V77.5675C155.787 77.5675 157.932 79.9525 157.932 82.885V83.005H158.51V82.885C158.51 79.9525 160.662 77.5675 163.542 77.5675C163.557 77.7475 163.572 77.9275 163.595 78.1C163.61 80.3125 162.245 82.3075 160.175 83.095Z" fill="#00AD6F"/>
<rect x="175" y="67" width="24" height="24" rx="4.5" fill="#B8E8D7" fill-opacity="0.6"/>
<path d="M192.25 71.5C193.493 71.5 194.5 72.5074 194.5 73.75V84.25C194.5 85.4926 193.493 86.5 192.25 86.5H181.75C180.507 86.5 179.5 85.4926 179.5 84.25V73.75C179.5 72.5074 180.507 71.5 181.75 71.5H192.25ZM182.5 83.5H186.625V74.5H182.5V83.5ZM187.375 74.5V83.5H191.5V76.75C191.5 75.5074 190.493 74.5 189.25 74.5H187.375Z" fill="#00AD6F"/>
<rect x="204" y="67" width="24" height="24" rx="4.5" fill="black" fill-opacity="0.05"/>
<path d="M221.25 71.5H210.75C209.505 71.5 208.5 72.505 208.5 73.75V84.25C208.5 85.495 209.505 86.5 210.75 86.5H221.25C222.495 86.5 223.5 85.495 223.5 84.25V73.75C223.5 72.505 222.495 71.5 221.25 71.5ZM220.065 81.4375C220.065 81.8575 219.743 82.1275 219.42 82.1725V83.1175H219.608C219.833 83.1175 220.02 83.305 220.02 83.53C220.02 83.755 219.833 83.95 219.608 83.95H213.277C212.595 83.95 211.935 83.38 211.935 82.645V75.2725C211.935 74.5975 212.49 74.05 213.158 74.05H219.24C219.457 74.05 219.667 74.125 219.832 74.2825C219.99 74.4475 220.065 74.6575 220.065 74.8675V81.4375Z" fill="black" fill-opacity="0.2"/>
<path fill-rule="evenodd" clip-rule="evenodd" d="M217.717 79.5625L217.335 78.415V78.4L216.652 76.3675C216.555 76.075 216.285 75.88 215.977 75.88C215.67 75.88 215.4 76.075 215.302 76.3675L214.628 78.4C214.628 78.4 214.62 78.4075 214.62 78.415L214.237 79.5625C214.185 79.7275 214.275 79.9 214.432 79.96C214.597 80.0125 214.777 79.9225 214.83 79.7575L215.145 78.82H216.818L217.125 79.7575C217.185 79.9225 217.357 80.0125 217.522 79.96C217.687 79.9 217.777 79.7275 217.717 79.5625ZM215.355 78.19L215.895 76.57C215.895 76.57 215.94 76.5025 215.977 76.5025C216.015 76.5025 216.053 76.5325 216.068 76.57L216.607 78.19H215.355Z" fill="black" fill-opacity="0.2"/>
<path fill-rule="evenodd" clip-rule="evenodd" d="M218.587 82.1725V83.1175H213.277C213 83.1175 212.768 82.8775 212.768 82.645C212.768 82.4125 212.977 82.1725 213.277 82.1725H218.587Z" fill="black" fill-opacity="0.2"/>
<rect x="88" y="96" width="24" height="24" rx="4.5" fill="#B8E8D7" fill-opacity="0.6"/>
<path d="M97.7067 100.5C94.8354 100.5 92.5 102.832 92.5 105.712V115.5H102.293C105.165 115.5 107.5 113.168 107.5 110.288V100.5H97.7067ZM102.936 106.027H99.2764V107.28H102.4V109.095H99.2534V111.735H97.0636V104.265H102.936V106.027Z" fill="#00AD6F"/>
<rect x="117" y="96" width="24" height="24" rx="4.5" fill="#F2F2F2"/>
<path d="M133.5 100.5C135.157 100.5 136.5 101.843 136.5 103.5V112.5C136.5 114.157 135.157 115.5 133.5 115.5H124.5C122.843 115.5 121.5 114.157 121.5 112.5V103.5C121.5 101.843 122.843 100.5 124.5 100.5H133.5ZM123 110.25H124.89V105.768H123V110.25ZM125.239 105.75L127.216 107.965L125.239 110.25H127.53L128.633 108.773L129.717 110.25H132.184L132.168 110.232H135V109.143H132.953V105.768H132.15L132.166 105.75H129.787L128.772 107.086L128.755 107.104L127.758 105.75H125.239ZM131.064 108.989L130.154 107.965L131.064 106.962V108.989Z" fill="#C2C2C2"/>
<rect x="146" y="96" width="24" height="24" rx="4.5" fill="#B8E8D7" fill-opacity="0.6"/>
<path d="M164.285 103.605L159.095 100.703C158.54 100.432 157.887 100.432 157.332 100.703L152.135 103.605C151.617 103.935 151.288 104.497 151.25 105.105V110.895C151.288 111.502 151.617 112.065 152.135 112.395L157.325 115.297C157.88 115.567 158.533 115.567 159.095 115.297L164.285 112.395C164.802 112.065 165.132 111.502 165.17 110.895V105.105C165.132 104.497 164.802 103.935 164.285 103.605ZM158.21 103.575C159.102 103.575 159.823 104.295 159.823 105.18C159.823 106.065 159.102 106.793 158.21 106.793C157.317 106.793 156.605 106.072 156.605 105.18C156.605 104.287 157.325 103.575 158.21 103.575ZM160.175 112.095C159.552 112.32 158.893 112.432 158.233 112.432C157.573 112.432 156.927 112.32 156.312 112.095C154.243 111.308 152.87 109.32 152.885 107.1V106.568C155.787 106.568 157.932 108.953 157.932 111.885V112.005H158.51V111.885C158.51 108.953 160.662 106.568 163.542 106.568C163.557 106.748 163.572 106.928 163.595 107.1C163.61 109.313 162.245 111.308 160.175 112.095Z" fill="#00AD6F"/>
<rect x="175" y="96" width="24" height="24" rx="4.5" fill="#B8E8D7" fill-opacity="0.6"/>
<path d="M192.25 100.5C193.493 100.5 194.5 101.507 194.5 102.75V113.25C194.5 114.493 193.493 115.5 192.25 115.5H181.75C180.507 115.5 179.5 114.493 179.5 113.25V102.75C179.5 101.507 180.507 100.5 181.75 100.5H192.25ZM182.5 112.5H186.625V103.5H182.5V112.5ZM187.375 103.5V112.5H191.5V105.75C191.5 104.507 190.493 103.5 189.25 103.5H187.375Z" fill="#00AD6F"/>
<rect x="204" y="96" width="24" height="24" rx="4.5" fill="#B8E8D7" fill-opacity="0.6"/>
<path d="M221.25 100.5H210.75C209.505 100.5 208.5 101.505 208.5 102.75V113.25C208.5 114.495 209.505 115.5 210.75 115.5H221.25C222.495 115.5 223.5 114.495 223.5 113.25V102.75C223.5 101.505 222.495 100.5 221.25 100.5ZM220.065 110.438C220.065 110.858 219.743 111.127 219.42 111.172V112.117H219.608C219.833 112.117 220.02 112.305 220.02 112.53C220.02 112.755 219.833 112.95 219.608 112.95H213.277C212.595 112.95 211.935 112.38 211.935 111.645V104.273C211.935 103.598 212.49 103.05 213.158 103.05H219.24C219.457 103.05 219.667 103.125 219.832 103.283C219.99 103.448 220.065 103.657 220.065 103.867V110.438Z" fill="#00AD6F"/>
<path fill-rule="evenodd" clip-rule="evenodd" d="M217.717 108.562L217.335 107.415V107.4L216.652 105.367C216.555 105.075 216.285 104.88 215.977 104.88C215.67 104.88 215.4 105.075 215.302 105.367L214.628 107.4C214.628 107.4 214.62 107.408 214.62 107.415L214.237 108.562C214.185 108.727 214.275 108.9 214.432 108.96C214.597 109.012 214.777 108.923 214.83 108.758L215.145 107.82H216.818L217.125 108.758C217.185 108.923 217.357 109.012 217.522 108.96C217.687 108.9 217.777 108.727 217.717 108.562ZM215.355 107.19L215.895 105.57C215.895 105.57 215.94 105.503 215.977 105.503C216.015 105.503 216.053 105.533 216.068 105.57L216.607 107.19H215.355Z" fill="#00AD6F"/>
<path fill-rule="evenodd" clip-rule="evenodd" d="M218.587 111.172V112.117H213.277C213 112.117 212.768 111.877 212.768 111.645C212.768 111.412 212.977 111.172 213.277 111.172H218.587Z" fill="#00AD6F"/>
<path d="M16.824 46.538H17.931V53H16.923L13.719 48.257V53H12.612V46.538H13.8L16.824 51.065V46.538ZM22.7601 48.905C23.1561 49.337 23.3631 49.949 23.3631 50.642C23.3631 51.335 23.1561 51.947 22.7601 52.379C22.3371 52.847 21.7611 53.099 21.0861 53.099C20.4111 53.099 19.8351 52.847 19.4121 52.379C19.0161 51.947 18.8091 51.335 18.8091 50.642C18.8091 49.949 19.0161 49.337 19.4121 48.905C19.8351 48.437 20.4111 48.185 21.0861 48.185C21.7611 48.185 22.3371 48.437 22.7601 48.905ZM21.0861 49.094C20.3571 49.094 19.8981 49.679 19.8981 50.642C19.8981 51.605 20.3571 52.19 21.0861 52.19C21.8151 52.19 22.2741 51.605 22.2741 50.642C22.2741 49.679 21.8151 49.094 21.0861 49.094ZM26.8587 52.55C26.5617 52.883 26.0577 53.081 25.4547 53.081C24.9957 53.081 24.6087 52.955 24.3117 52.694C24.0147 52.433 23.8617 52.091 23.8617 51.686C23.8617 50.903 24.3657 50.426 25.4457 50.201L26.7507 49.931V49.85C26.7507 49.373 26.4807 49.121 25.9407 49.121C25.4457 49.121 25.1667 49.337 25.0317 49.814L24.0147 49.58C24.2667 48.725 25.0137 48.185 25.9857 48.185C27.1647 48.185 27.8037 48.761 27.8037 49.814V51.848C27.8037 52.109 27.9207 52.199 28.2177 52.163V53C27.4527 53.081 27.0297 52.946 26.8587 52.55ZM25.6167 52.217C26.2647 52.217 26.7507 51.866 26.7507 51.335V50.759L25.7337 50.975C25.1487 51.11 24.9327 51.29 24.9327 51.641C24.9327 52.001 25.1937 52.217 25.6167 52.217ZM30.065 53H28.985V46.538H30.065V48.779C30.398 48.392 30.839 48.185 31.37 48.185C32.342 48.185 32.954 48.851 32.954 49.886V53H31.874V50.201C31.874 49.553 31.586 49.193 31.046 49.193C30.497 49.193 30.065 49.616 30.065 50.228V53ZM40.1498 53H35.9558V46.538H37.1078V51.992H40.1498V53Z" fill="black"/>
<path d="M14.502 80.281L15.699 75.538H16.716L17.922 80.281L19.146 75.538H20.298L18.552 82H17.418L16.194 77.446L14.979 82H13.845L12.09 75.538H13.278L14.502 80.281ZM22.0058 76.645H20.8898V75.538H22.0058V76.645ZM20.9078 77.275H21.9878V82H20.9078V77.275ZM23.1227 75.538H24.2027V82H23.1227V75.538ZM25.3375 75.538H26.4175V82H25.3375V75.538ZM28.6504 76.645H27.5344V75.538H28.6504V76.645ZM27.5524 77.275H28.6324V82H27.5524V77.275ZM32.4222 81.55C32.1252 81.883 31.6212 82.081 31.0182 82.081C30.5592 82.081 30.1722 81.955 29.8752 81.694C29.5782 81.433 29.4252 81.091 29.4252 80.686C29.4252 79.903 29.9292 79.426 31.0092 79.201L32.3142 78.931V78.85C32.3142 78.373 32.0442 78.121 31.5042 78.121C31.0092 78.121 30.7302 78.337 30.5952 78.814L29.5782 78.58C29.8302 77.725 30.5772 77.185 31.5492 77.185C32.7282 77.185 33.3672 77.761 33.3672 78.814V80.848C33.3672 81.109 33.4842 81.199 33.7812 81.163V82C33.0162 82.081 32.5932 81.946 32.4222 81.55ZM31.1802 81.217C31.8282 81.217 32.3142 80.866 32.3142 80.335V79.759L31.2972 79.975C30.7122 80.11 30.4962 80.29 30.4962 80.641C30.4962 81.001 30.7572 81.217 31.1802 81.217ZM36.5644 78.193C36.0334 78.193 35.6284 78.616 35.6284 79.228V82H34.5484V77.275H35.6284V77.779C35.9524 77.383 36.3934 77.185 36.9244 77.185C37.4644 77.185 37.8964 77.41 38.1754 77.842C38.5984 77.401 39.0754 77.185 39.6424 77.185C40.1194 77.185 40.5064 77.338 40.8034 77.653C41.1004 77.968 41.2444 78.373 41.2444 78.886V82H40.1644V79.201C40.1644 78.544 39.8854 78.193 39.3724 78.193C38.8414 78.193 38.4364 78.616 38.4364 79.228V82H37.3564V79.201C37.3564 78.544 37.0774 78.193 36.5644 78.193ZM46.2958 82.099C45.7288 82.099 45.1978 81.973 44.7028 81.73C44.2078 81.478 43.8298 81.145 43.5868 80.74L44.4688 80.011C44.9278 80.722 45.6028 81.118 46.3318 81.118C47.1148 81.118 47.6098 80.749 47.6098 80.164C47.6098 79.912 47.5108 79.732 47.2948 79.597C47.1508 79.498 46.9618 79.426 46.6468 79.345L46.2868 79.264C46.1338 79.219 46.0258 79.192 45.9718 79.183C45.2158 79.003 44.8738 78.859 44.5858 78.67C44.1628 78.382 43.9558 77.968 43.9558 77.401C43.9558 76.798 44.2078 76.294 44.6848 75.934C45.0898 75.61 45.6658 75.439 46.2868 75.439C47.3038 75.439 48.2218 75.907 48.6898 76.636L47.8438 77.365C47.4208 76.717 46.9258 76.42 46.2508 76.42C45.5578 76.42 45.0808 76.771 45.0808 77.284C45.0808 77.599 45.2248 77.788 45.5848 77.932C45.7378 77.995 45.9178 78.049 46.4488 78.166C46.9348 78.274 47.2768 78.364 47.4748 78.436C47.6818 78.508 47.8528 78.589 47.9968 78.679C48.5008 78.976 48.7438 79.426 48.7438 80.047C48.7438 80.668 48.4738 81.199 47.9788 81.586C47.5378 81.91 46.9438 82.099 46.2958 82.099Z" fill="black"/>
<path d="M12.09 111L14.538 104.538H15.843L18.291 111H17.13L16.572 109.524H13.782L13.233 111H12.09ZM16.194 108.516L15.168 105.816L14.16 108.516H16.194ZM20.876 107.193C20.345 107.193 19.94 107.616 19.94 108.228V111H18.86V106.275H19.94V106.779C20.264 106.383 20.705 106.185 21.236 106.185C21.776 106.185 22.208 106.41 22.487 106.842C22.91 106.401 23.387 106.185 23.954 106.185C24.431 106.185 24.818 106.338 25.115 106.653C25.412 106.968 25.556 107.373 25.556 107.886V111H24.476V108.201C24.476 107.544 24.197 107.193 23.684 107.193C23.153 107.193 22.748 107.616 22.748 108.228V111H21.668V108.201C21.668 107.544 21.389 107.193 20.876 107.193ZM30.6519 110.343C30.2829 110.838 29.7339 111.099 29.0949 111.099C28.5279 111.099 28.0599 110.892 27.7359 110.505V111H26.6559V104.538H27.7359V106.779C28.0599 106.392 28.5279 106.185 29.0949 106.185C29.7339 106.185 30.2829 106.446 30.6519 106.941C30.9849 107.382 31.1739 107.985 31.1739 108.642C31.1739 109.299 30.9849 109.902 30.6519 110.343ZM28.8789 107.13C28.1679 107.13 27.7089 107.67 27.7089 108.507V108.786C27.7089 109.614 28.1859 110.154 28.8789 110.154C29.6349 110.154 30.0849 109.578 30.0849 108.642C30.0849 107.706 29.6349 107.13 28.8789 107.13ZM34.0064 111.099C33.3314 111.099 32.7464 110.847 32.3234 110.388C31.9274 109.947 31.7114 109.335 31.7114 108.642C31.7114 107.985 31.9274 107.364 32.3144 106.923C32.7374 106.446 33.3134 106.185 33.9614 106.185C34.6004 106.185 35.1134 106.401 35.4914 106.833C35.8694 107.256 36.0584 107.823 36.0584 108.516V108.876H32.7464C32.8274 109.677 33.3134 110.181 34.0064 110.181C34.5464 110.181 34.9604 109.893 35.1044 109.425L36.0314 109.776C35.6984 110.604 34.9424 111.099 34.0064 111.099ZM33.9524 107.094C33.3764 107.094 32.9534 107.445 32.8004 108.066H34.9694C34.9604 107.481 34.5734 107.094 33.9524 107.094ZM39.2448 106.248C39.3438 106.248 39.4338 106.257 39.5508 106.266V107.346C39.4068 107.319 39.2988 107.319 39.1548 107.319C38.4348 107.319 37.9488 107.796 37.9488 108.516V111H36.8688V106.275H37.9488V106.977C38.1648 106.536 38.6598 106.248 39.2448 106.248ZM47.587 106.005L45.895 111H44.959L43.267 106.005V111H42.196V104.538H43.78L45.445 109.488L47.11 104.538H48.658V111H47.587V106.005Z" fill="black"/>
<rect x="159.25" y="12.1348" width="68.5" height="13.5" rx="6.75" stroke="#377EF0" stroke-width="0.5"/>
<path d="M170.81 18.337V15.717H171.635V21.8848H170.81V19.0586H167.503V21.8848H166.679V15.717H167.503V18.337H170.81ZM175.469 21.3779C175.186 21.7473 174.67 21.9621 174.086 21.9621C173.657 21.9621 173.305 21.8418 173.021 21.6099C172.746 21.3694 172.609 21.0601 172.609 20.6736C172.609 19.909 173.107 19.4537 174.31 19.2046L175.401 18.9813V18.7923C175.401 18.2683 175.1 17.9848 174.516 17.9848C173.966 17.9848 173.614 18.2339 173.476 18.7494L172.746 18.5604C172.978 17.7958 173.657 17.3062 174.542 17.3062C175.581 17.3062 176.165 17.8302 176.165 18.7579V20.9484C176.165 21.2233 176.337 21.335 176.646 21.2663V21.8848C175.95 21.9793 175.564 21.7989 175.469 21.3779ZM174.181 21.335C174.524 21.335 174.817 21.2405 175.048 21.0601C175.28 20.8711 175.401 20.6392 175.401 20.3557V19.5826L174.524 19.7716C173.665 19.9434 173.373 20.1925 173.373 20.6392C173.373 21.0773 173.674 21.335 174.181 21.335ZM181.116 21.2577C180.764 21.7301 180.257 21.9793 179.647 21.9793C179.055 21.9793 178.531 21.7044 178.256 21.2319V21.8848H177.483V15.717H178.256V18.045C178.539 17.5897 179.055 17.3062 179.647 17.3062C180.257 17.3062 180.773 17.5553 181.125 18.0278C181.434 18.4487 181.606 19.0157 181.606 19.6427C181.606 20.2612 181.434 20.8368 181.116 21.2577ZM179.51 17.9848C178.763 17.9848 178.239 18.5604 178.239 19.4881V19.8059C178.239 20.7251 178.763 21.3006 179.51 21.3006C180.309 21.3006 180.824 20.6478 180.824 19.6427C180.824 18.6377 180.326 17.9848 179.51 17.9848ZM183.391 16.6104H182.549V15.717H183.391V16.6104ZM182.583 17.3921H183.356V21.8848H182.583V17.3921ZM185.97 21.9277C185.111 21.9277 184.767 21.5927 184.767 20.811V18.0536H184.071V17.3921H184.767V16.0778H185.531V17.3921H186.554V18.0536H185.531V20.6907C185.531 21.0945 185.678 21.2491 186.159 21.2491C186.365 21.2491 186.485 21.2319 186.648 21.1976V21.859C186.442 21.9019 186.21 21.9277 185.97 21.9277ZM189.044 21.9793C188.159 21.9793 187.386 21.5841 187.068 20.9313L187.669 20.4932C187.91 21.0086 188.451 21.335 189.044 21.335C189.636 21.335 190.031 21.0687 190.031 20.622C190.031 20.3557 189.911 20.1925 189.602 20.0894C189.542 20.0637 189.464 20.0465 189.387 20.0293C189.31 20.0035 189.129 19.9692 188.863 19.909C188.545 19.8403 188.322 19.7802 188.185 19.7372C188.047 19.6857 187.927 19.6256 187.832 19.5654C187.497 19.3678 187.351 19.0758 187.351 18.6635C187.351 18.2683 187.506 17.9419 187.815 17.6928C188.124 17.4351 188.52 17.3062 189.001 17.3062C189.782 17.3062 190.461 17.6756 190.736 18.2339L190.186 18.672C189.945 18.1996 189.507 17.9419 188.966 17.9419C188.451 17.9419 188.107 18.1996 188.107 18.6033C188.107 18.8353 188.219 18.9727 188.485 19.0758C188.597 19.1101 188.691 19.1445 189.129 19.239C189.516 19.3335 189.765 19.4022 189.894 19.4452C190.023 19.4881 190.143 19.5311 190.238 19.5912C190.616 19.8059 190.787 20.1152 190.787 20.5533C190.787 20.9656 190.624 21.3092 190.289 21.5755C189.954 21.8418 189.542 21.9793 189.044 21.9793ZM196.88 18.002C197.232 18.4143 197.421 18.9899 197.421 19.6427C197.421 20.2956 197.232 20.8711 196.88 21.2835C196.502 21.7301 195.952 21.9793 195.334 21.9793C194.715 21.9793 194.166 21.7301 193.788 21.2835C193.435 20.8711 193.246 20.2956 193.246 19.6427C193.246 18.9899 193.435 18.4143 193.788 18.002C194.166 17.5553 194.715 17.3062 195.334 17.3062C195.952 17.3062 196.502 17.5553 196.88 18.002ZM195.334 17.9591C194.544 17.9591 194.028 18.6119 194.028 19.6427C194.028 20.665 194.544 21.3178 195.334 21.3178C196.124 21.3178 196.64 20.665 196.64 19.6427C196.64 18.6119 196.124 17.9591 195.334 17.9591ZM199.951 15.6225C200.097 15.6225 200.329 15.6397 200.363 15.6397V16.3269C200.268 16.3183 200.208 16.3097 200.028 16.3097C199.538 16.3097 199.324 16.5417 199.324 17.0829V17.3921H200.32V18.0536H199.324V21.8848H198.55V18.0536H197.872V17.3921H198.55V17.0313C198.55 16.1379 199.057 15.6225 199.951 15.6225ZM204.062 20.7337L204.989 17.3921H205.642L206.57 20.7423L207.506 17.3921H208.279L206.914 21.8848H206.235L205.299 18.5518L204.362 21.8848H203.684L202.318 17.3921H203.117L204.062 20.7337ZM212.274 18.002C212.626 18.4143 212.815 18.9899 212.815 19.6427C212.815 20.2956 212.626 20.8711 212.274 21.2835C211.896 21.7301 211.346 21.9793 210.727 21.9793C210.109 21.9793 209.559 21.7301 209.181 21.2835C208.829 20.8711 208.64 20.2956 208.64 19.6427C208.64 18.9899 208.829 18.4143 209.181 18.002C209.559 17.5553 210.109 17.3062 210.727 17.3062C211.346 17.3062 211.896 17.5553 212.274 18.002ZM210.727 17.9591C209.937 17.9591 209.422 18.6119 209.422 19.6427C209.422 20.665 209.937 21.3178 210.727 21.3178C211.518 21.3178 212.033 20.665 212.033 19.6427C212.033 18.6119 211.518 17.9591 210.727 17.9591ZM215.817 17.3577C215.92 17.3577 216.023 17.3663 216.126 17.3749V18.1566C215.997 18.1309 215.894 18.1223 215.748 18.1223C215.413 18.1223 215.129 18.2425 214.906 18.4917C214.683 18.7322 214.571 19.0414 214.571 19.428V21.8848H213.798V17.3921H214.571V18.1566C214.786 17.667 215.258 17.3577 215.817 17.3577ZM216.977 15.717H217.75V19.4881L219.743 17.3921H220.705L218.953 19.1617L220.851 21.8848H219.949L218.403 19.72L217.75 20.3815V21.8848H216.977V15.717Z" fill="#377EF0"/>
</g>
<rect x="0.5" y="0.5" width="237" height="129" stroke="black" stroke-opacity="0.1"/>
<defs>
<clipPath id="clip0_229_7899">
<rect width="238" height="130" fill="white"/>
</clipPath>
</defs>
</svg>
