<svg width="202" height="122" viewBox="0 0 202 122" fill="none" xmlns="http://www.w3.org/2000/svg">
<path opacity="0.8" d="M200.695 1H1V120.811H200.695V1Z" fill="#222222" stroke="#B3B3B3" stroke-width="0.998923" stroke-miterlimit="10"/>
<path d="M40.9347 85.4708C54.5007 85.4708 65.4982 74.4733 65.4982 60.9073C65.4982 47.3412 54.5007 36.3438 40.9347 36.3438C27.3686 36.3438 16.3711 47.3412 16.3711 60.9073C16.3711 74.4733 27.3686 85.4708 40.9347 85.4708Z" stroke="#F3FEAB" stroke-width="0.998923" stroke-miterlimit="10"/>
<path d="M40.9356 74.3437C48.3558 74.3437 54.371 68.3284 54.371 60.9082C54.371 53.488 48.3558 47.4727 40.9356 47.4727C33.5154 47.4727 27.5 53.488 27.5 60.9082C27.5 68.3284 33.5154 74.3437 40.9356 74.3437Z" stroke="#F3FEAB" stroke-width="0.998923" stroke-miterlimit="10"/>
<path d="M160.759 83.0626C174.325 83.0626 185.322 72.0651 185.322 58.4991C185.322 44.933 174.325 33.9355 160.759 33.9355C147.193 33.9355 136.195 44.933 136.195 58.4991C136.195 72.0651 147.193 83.0626 160.759 83.0626Z" stroke="#F3FEAB" stroke-width="0.998923" stroke-miterlimit="10"/>
<path d="M160.76 71.9355C168.18 71.9355 174.195 65.9202 174.195 58.5C174.195 51.0797 168.18 45.0645 160.76 45.0645C153.339 45.0645 147.324 51.0797 147.324 58.5C147.324 65.9202 153.339 71.9355 160.76 71.9355Z" stroke="#F3FEAB" stroke-width="0.998923" stroke-miterlimit="10"/>
<g opacity="0.8">
<path d="M117.395 41.3672V102.361" stroke="#B3B3B3" stroke-width="0.998923" stroke-miterlimit="10"/>
<path d="M120.801 102.361H113.988V120.372H120.801V102.361Z" fill="#222222" stroke="#B3B3B3" stroke-width="0.998923" stroke-miterlimit="10"/>
<path d="M106.357 41.3672V102.361" stroke="#B3B3B3" stroke-width="0.998923" stroke-miterlimit="10"/>
<path d="M109.764 102.361H102.951V120.372H109.764V102.361Z" fill="#222222" stroke="#B3B3B3" stroke-width="0.998923" stroke-miterlimit="10"/>
<path d="M95.3203 41.3672V102.361" stroke="#B3B3B3" stroke-width="0.998923" stroke-miterlimit="10"/>
<path d="M98.7267 102.361H91.9141V120.372H98.7267V102.361Z" fill="#222222" stroke="#B3B3B3" stroke-width="0.998923" stroke-miterlimit="10"/>
<path d="M84.2812 41.3672V102.361" stroke="#B3B3B3" stroke-width="0.998923" stroke-miterlimit="10"/>
<path d="M87.6876 102.361H80.875V120.372H87.6876V102.361Z" fill="#222222" stroke="#B3B3B3" stroke-width="0.998923" stroke-miterlimit="10"/>
</g>
</svg>
